<svg xmlns:svg="http://www.w3.org/2000/svg" xmlns="http://www.w3.org/2000/svg" version="1.1" xml:space="preserve" width="193.9" height="123.7" viewBox="0 0 193.9 123.7">
  <g transform="matrix(1.3333333,0,0,-1.3333333,-6.5000746,173.59123)">
    <g aria-label="ZS" transform="matrix(1,0,0,-1,0,39.0012)">
      <path d="m119.7-91.2c-17.9 0-33.8 9-33.8 24.4 0 12.3 6.6 19.9 22.1 26.8l9.3 4.2c7.3 3.2 11.9 6.3 11.9 15.8 0 9.5-5.7 17.2-17.2 17.2-6.9 0-11.5-4.2-15.1-7.7-2.9-5.6-5.2-14.5-6.3-20.5h-4.9c0.4 12 1.1 27.4 0.6 32.7h3.3l2.2-3.3c4.9 1.6 10.8 3.3 21.9 3.3 22.4 0 36.6-10.2 36.6-27 0-16.1-11-22.2-22.4-27.2l-9.7-4c-7.9-3.4-12.2-7.7-12.2-16.8 0-8 6.6-13.5 13.8-13.5 7.3 0 12.8 3.9 16.2 7.3 2.4 3.7 4.7 11.8 5.9 17.6h4.9l-1-28.5h-3l-3 3.4c-4.9-2.6-11.5-4.2-19.9-4.2zM8.9-90.3 7.3-62.5h3.9c1.3-5.2 4.9-14.3 8.5-19.1 3.6-1.3 11.5-1.4 18.2-1.4H52L4.9-2.7V0h69.5l4.7-28h-3.9c-2.3 5.7-8.9 15.8-12.3 19.6-4.4 1.9-10 2.2-18.4 2.2h-14.6L76.7-86.5v-2.4H21.4c-4.6 0-9.9-0.7-12.5-1.4z" fill="#000"/>
    </g>
  </g>
</svg>
