<svg xmlns="http://www.w3.org/2000/svg" viewBox="0 0 409.7 122.63">
    <g aria-lable="Zürcher Studierendenzeitung ZS">
        <path d="M0 115.92L25.2 10.54H0V0h40.21l-25 105.38h25v10.54zM58 115.92a12.31 12.31 0 01-12.26-12.26V87.59H58.3v17.79h14.85V82.06L48.1 38.53a17.38 17.38 0 01-2.41-8.12V12.27A12.31 12.31 0 0158 0h15.5a12.21 12.21 0 0112.27 12.27v16.06H73.15V10.54H58.3v21.08l25.22 43.53a15.92 15.92 0 012.25 7.95v20.56a12.21 12.21 0 01-12.27 12.26zM112.62 73.93l6.89-26.86h-5.85v-2.79h9.89l-7 26.9h6.26v2.75zM137 73.93l-.23-1.76a2.86 2.86 0 01-3 1.76h-2a3.2 3.2 0 01-3.19-3.2v-19h3.23v19.41h4.77V51.7h3.24v22.23zM130.3 49v-3.69h2.84V49zm5 0v-3.69h2.83V49zM146.68 73.93V51.7h3.24v1.71a3 3 0 012.93-1.71h2v2.84h-4.91v19.39zM163 73.93a3.22 3.22 0 01-3.24-3.2V54.9a3.22 3.22 0 013.24-3.2h4.59a3.18 3.18 0 013.19 3.2v4h-3.19v-4.36H163v16.6h4.59V67h3.19v3.77a3.18 3.18 0 01-3.19 3.2zM185 73.93V54.54h-4.59v19.39h-3.24V43.2h3.24v10a2.84 2.84 0 012.7-1.49H185a3.21 3.21 0 013.2 3.2v19zM197.89 73.93a3.21 3.21 0 01-3.19-3.2V54.9a3.21 3.21 0 013.19-3.2h4.64a3.21 3.21 0 013.19 3.2v6.66a3.21 3.21 0 01-3.19 3.23h-4.64v6.35h4.59V67.9h3.24v2.83a3.21 3.21 0 01-3.19 3.2zm4.59-19.39h-4.59V62h4.59zM212.2 73.93V51.7h3.24v1.71a3 3 0 012.93-1.71h2v2.84h-4.91v19.39zM116.9 116.2a3.21 3.21 0 01-3.2-3.2v-4.18h3.3v4.63h3.87v-6.07L114.33 96a4.48 4.48 0 01-.63-2.11V89.2a3.21 3.21 0 013.2-3.2h4a3.18 3.18 0 013.19 3.19v4.19h-3.28v-4.63H117v5.49l6.56 11.34a4.18 4.18 0 01.59 2.07V113a3.18 3.18 0 01-3.19 3.2zM131.43 115.93V96.49h-2.83V93.7h2.83v-5h3.24v5h3.47v2.79h-3.47v19.44zM151.73 115.93l-.23-1.76a2.86 2.86 0 01-3 1.76h-2a3.21 3.21 0 01-3.2-3.2v-19h3.24v19.44h4.77V93.7h3.24v22.23zM164.33 115.93a3.21 3.21 0 01-3.2-3.2V96.9a3.21 3.21 0 013.2-3.2h2.34a2.88 2.88 0 012.25.86V85.2h3.24v30.73zm4.59-19.39h-4.55v16.6h4.55zM178.77 90.69v-3.87h3.69v3.87zm.23 25.24V93.7h3.24v22.23zM192 115.93a3.21 3.21 0 01-3.2-3.2V96.9a3.21 3.21 0 013.2-3.2h4.63a3.21 3.21 0 013.2 3.2v6.66a3.22 3.22 0 01-3.2 3.23H192v6.35h4.59v-3.24h3.24v2.83a3.21 3.21 0 01-3.2 3.2zm4.59-19.39H192V104h4.59zM206.31 115.93V93.7h3.24v1.71a3 3 0 012.92-1.71h2v2.84h-4.9v19.39zM222.6 115.93a3.21 3.21 0 01-3.2-3.2V96.9a3.21 3.21 0 013.2-3.2h4.63a3.21 3.21 0 013.2 3.2v6.66a3.22 3.22 0 01-3.2 3.23h-4.63v6.35h4.59v-3.24h3.24v2.83a3.21 3.21 0 01-3.2 3.2zm4.59-19.39h-4.59V104h4.59zM244.92 115.93V96.54h-4.82v19.39h-3.19V93.7h3.19v1.49a3 3 0 012.75-1.49H245a3.21 3.21 0 013.2 3.2v19zM257.83 115.93a3.21 3.21 0 01-3.19-3.2V96.9a3.21 3.21 0 013.19-3.2h2.34a2.88 2.88 0 012.25.86V85.2h3.24v30.73zm4.59-19.39h-4.54v16.6h4.54zM275.43 115.93a3.21 3.21 0 01-3.2-3.2V96.9a3.21 3.21 0 013.2-3.2h4.63a3.21 3.21 0 013.2 3.2v6.66a3.22 3.22 0 01-3.2 3.23h-4.63v6.35H280v-3.24h3.24v2.83a3.21 3.21 0 01-3.2 3.2zM280 96.54h-4.59V104H280zM297.75 115.93V96.54h-4.82v19.39h-3.19V93.7h3.19v1.49a3 3 0 012.75-1.49h2.11a3.21 3.21 0 013.2 3.2v19zM306.3 115.93l6.48-19.39h-5.58V93.7h9.85l-6.7 19.48h6.21v2.75zM325.2 115.93a3.21 3.21 0 01-3.2-3.2V96.9a3.21 3.21 0 013.2-3.2h4.63a3.21 3.21 0 013.2 3.2v6.66a3.22 3.22 0 01-3.2 3.23h-4.63v6.35h4.59v-3.24H333v2.83a3.21 3.21 0 01-3.2 3.2zm4.59-19.39h-4.59V104h4.59zM339.28 90.69v-3.87H343v3.87zm.23 25.24V93.7h3.23v22.23zM351 115.93V96.49h-2.84V93.7H351v-5h3.24v5h3.46v2.79h-3.46v19.44zM371.27 115.93l-.22-1.76a2.87 2.87 0 01-3 1.76h-2a3.21 3.21 0 01-3.2-3.2v-19h3.24v19.44h4.77V93.7h3.24v22.23zM389 115.93V96.54h-4.81v19.39H381V93.7h3.2v1.49a2.94 2.94 0 012.74-1.49H389a3.21 3.21 0 013.2 3.2v19zM401.87 122.63a3.14 3.14 0 01-3.19-3.19v-1.76h3.19v2.16h4.59v-5.94a2.87 2.87 0 01-2.74 1.44h-1.85a3.17 3.17 0 01-3.19-3.19V96.9a3.18 3.18 0 013.19-3.2h7.83v25.74a3.18 3.18 0 01-3.24 3.19zm4.59-26.09h-4.59v16h4.59z" fill="rgb(3,3,3)"/>
    </g>
</svg>
