<?xml version="1.0" encoding="UTF-8" standalone="no"?>
<!-- Created with Inkscape (http://www.inkscape.org/) -->

<svg
   xmlns:dc="http://purl.org/dc/elements/1.1/"
   xmlns:cc="http://creativecommons.org/ns#"
   xmlns:rdf="http://www.w3.org/1999/02/22-rdf-syntax-ns#"
   xmlns:svg="http://www.w3.org/2000/svg"
   xmlns="http://www.w3.org/2000/svg"
   xmlns:sodipodi="http://sodipodi.sourceforge.net/DTD/sodipodi-0.dtd"
   xmlns:inkscape="http://www.inkscape.org/namespaces/inkscape"
   version="1.1"
   id="svg2"
   xml:space="preserve"
   width="193.85304"
   height="123.6926"
   viewBox="0 0 193.85304 123.6926"
   sodipodi:docname="zs-signet.svg"
   inkscape:version="0.92.2 2405546, 2018-03-11"
   inkscape:export-filename="/home/robin/Documents/Projects/zsavs-assets/ZS_signet.svg.png"
   inkscape:export-xdpi="38.805878"
   inkscape:export-ydpi="38.805878"><metadata
     id="metadata8"><rdf:RDF><cc:Work
         rdf:about=""><dc:format>image/svg+xml</dc:format><dc:type
           rdf:resource="http://purl.org/dc/dcmitype/StillImage" /><dc:title /></cc:Work></rdf:RDF></metadata><defs
     id="defs6" /><sodipodi:namedview
     pagecolor="#ffffff"
     bordercolor="#666666"
     borderopacity="1"
     objecttolerance="10"
     gridtolerance="10"
     guidetolerance="10"
     inkscape:pageopacity="0"
     inkscape:pageshadow="2"
     inkscape:window-width="1920"
     inkscape:window-height="1015"
     id="namedview4"
     showgrid="false"
     inkscape:zoom="1.2310364"
     inkscape:cx="-52.591816"
     inkscape:cy="75.078295"
     inkscape:window-x="0"
     inkscape:window-y="0"
     inkscape:window-maximized="1"
     inkscape:current-layer="g14" /><g
     id="g10"
     inkscape:groupmode="layer"
     inkscape:label="ink_ext_XXXXXX"
     transform="matrix(1.3333333,0,0,-1.3333333,-6.5000746,173.59123)"
     style="display:inline"><g
       id="g12"
       transform="scale(0.1)"><g
         id="g14"
         transform="scale(10)"><g
   aria-label="ZS"
   transform="matrix(1,0,0,-1,0,39.0012)"
   style="font-variant:normal;font-weight:bold;font-size:143.38400269px;font-family:Arnhem;-inkscape-font-specification:Arnhem-Bold;writing-mode:lr-tb;fill:#231f20;fill-opacity:1;fill-rule:nonzero;stroke:none"
   id="text18"><path
     sodipodi:type="inkscape:offset"
     inkscape:radius="0"
     inkscape:original="M 119.72461 -91.191406 C 101.80161 -91.191406 85.884766 -82.158495 85.884766 -66.816406 C 85.884766 -54.485382 92.481328 -46.886338 107.9668 -40.003906 L 117.28711 -35.845703 C 124.5997 -32.691255 129.1875 -29.537564 129.1875 -20.074219 C 129.1875 -10.610875 123.4512 -2.8671875 111.98047 -2.8671875 C 105.09804 -2.8671875 100.51038 -7.0267282 96.925781 -10.611328 C 94.058101 -16.203304 91.76426 -25.093105 90.617188 -31.115234 L 85.742188 -31.115234 C 86.17234 -19.070977 86.889942 -3.7270831 86.316406 1.578125 L 89.613281 1.578125 L 91.763672 -1.7207031 C 96.638728 -0.14347913 102.51722 1.578125 113.70117 1.578125 C 136.06908 1.578125 150.26563 -8.6029785 150.26562 -25.378906 C 150.26562 -41.437915 139.22382 -47.602654 127.89648 -52.621094 L 118.14648 -56.636719 C 110.26036 -60.077935 105.95898 -64.378917 105.95898 -73.412109 C 105.95898 -81.441614 112.55541 -86.890625 119.72461 -86.890625 C 127.0372 -86.890625 132.48457 -83.019342 135.92578 -79.578125 C 138.36331 -75.850141 140.65762 -67.82015 141.80469 -61.941406 L 146.67969 -61.941406 L 145.67578 -90.474609 L 142.66602 -90.474609 L 139.6543 -87.033203 C 134.77924 -89.614115 128.18427 -91.191406 119.72461 -91.191406 z M 8.890625 -90.332031 L 7.3125 -62.515625 L 11.183594 -62.515625 C 12.47405 -67.677449 16.059931 -76.854265 19.644531 -81.585938 C 23.229131 -82.876394 31.114468 -83.019531 37.853516 -83.019531 L 52.048828 -83.019531 L 4.875 -2.7246094 L 4.875 0 L 74.416016 0 L 79.148438 -27.958984 L 75.277344 -27.958984 C 72.9832 -22.223623 66.386529 -12.187774 62.945312 -8.3164062 C 58.500408 -6.4524142 52.908069 -6.1660156 44.591797 -6.1660156 L 29.966797 -6.1660156 L 76.710938 -86.460938 L 76.710938 -88.898438 L 21.363281 -88.898438 C 16.774993 -88.898438 11.471537 -89.615111 8.890625 -90.332031 z "
     style="fill:#fff;fill-opacity:1"
     id="path819"
     d="m 119.72461,-91.191406 c -17.923,0 -33.839844,9.032911 -33.839844,24.375 0,12.331024 6.596562,19.930068 22.082034,26.8125 l 9.32031,4.158203 c 7.31259,3.154448 11.90039,6.308139 11.90039,15.771484 0,9.463344 -5.7363,17.2070315 -17.20703,17.2070315 -6.88243,0 -11.47009,-4.1595407 -15.054689,-7.7441405 -2.86768,-5.591976 -5.161521,-14.481777 -6.308593,-20.503906 h -4.875 c 0.430152,12.044257 1.147754,27.3881509 0.574218,32.693359 h 3.296875 l 2.150391,-3.2988281 c 4.875056,1.57722397 10.753548,3.2988281 21.937498,3.2988281 22.36791,0 36.56446,-10.1811035 36.56445,-26.957031 0,-16.059009 -11.0418,-22.223748 -22.36914,-27.242188 l -9.75,-4.015625 c -7.88612,-3.441216 -12.1875,-7.742198 -12.1875,-16.77539 0,-8.029505 6.59643,-13.478516 13.76563,-13.478516 7.31259,0 12.75996,3.871283 16.20117,7.3125 2.43753,3.727984 4.73184,11.757975 5.87891,17.636719 h 4.875 l -1.00391,-28.533203 h -3.00976 l -3.01172,3.441406 c -4.87506,-2.580912 -11.47003,-4.158203 -19.92969,-4.158203 z M 8.890625,-90.332031 7.3125,-62.515625 h 3.871094 c 1.290456,-5.161824 4.876337,-14.33864 8.460937,-19.070313 3.5846,-1.290456 11.469937,-1.433593 18.208985,-1.433593 H 52.048828 L 4.875,-2.7246094 V 0 h 69.541016 l 4.732422,-27.958984 h -3.871094 c -2.294144,5.735361 -8.890815,15.77121 -12.332032,19.6425778 -4.444904,1.863992 -10.037243,2.1503906 -18.353515,2.1503906 h -14.625 L 76.710938,-86.460938 v -2.4375 H 21.363281 c -4.588288,0 -9.891744,-0.716673 -12.472656,-1.433593 z" /></g>




</g><path
         d="m 1650.27,436.332 h 770.28"
         style="fill:#231f20;fill-opacity:1;fill-rule:nonzero;stroke:none"
         id="path32"
         inkscape:connector-curvature="0" /></g></g></svg>
